<?xml version="1.0" encoding="UTF-8" standalone="no"?>
<!-- Created with Inkscape (http://www.inkscape.org/) -->

<svg
   width="256"
   height="256"
   viewBox="0 0 67.733331 67.733331"
   version="1.1"
   id="svg5"
   inkscape:version="1.3.2 (091e20e, 2023-11-25)"
   xml:space="preserve"
   sodipodi:docname="reardopher.svg"
   xmlns:inkscape="http://www.inkscape.org/namespaces/inkscape"
   xmlns:sodipodi="http://sodipodi.sourceforge.net/DTD/sodipodi-0.dtd"
   xmlns="http://www.w3.org/2000/svg"
   xmlns:svg="http://www.w3.org/2000/svg"><sodipodi:namedview
     id="namedview7"
     pagecolor="#313131"
     bordercolor="#000000"
     borderopacity="1"
     inkscape:pageshadow="2"
     inkscape:pageopacity="0"
     inkscape:pagecheckerboard="false"
     inkscape:document-units="px"
     showgrid="false"
     units="px"
     width="256px"
     inkscape:showpageshadow="false"
     borderlayer="false"
     showborder="true"
     inkscape:deskcolor="#383838"
     inkscape:zoom="2.0332114"
     inkscape:cx="73.528999"
     inkscape:cy="115.82662"
     inkscape:window-width="1920"
     inkscape:window-height="1000"
     inkscape:window-x="0"
     inkscape:window-y="0"
     inkscape:window-maximized="1"
     inkscape:current-layer="layer1" /><defs
     id="defs2"><inkscape:path-effect
       effect="spiro"
       id="path-effect5"
       is_visible="true"
       lpeversion="1" /><inkscape:path-effect
       effect="spiro"
       id="path-effect4"
       is_visible="true"
       lpeversion="1" /></defs><g
     inkscape:label="Layer 1"
     inkscape:groupmode="layer"
     id="layer1"><path
       style="fill:#69d7e4;fill-opacity:1;stroke:#000000;stroke-width:0.529167;stroke-linecap:butt;stroke-linejoin:miter;stroke-dasharray:none;stroke-opacity:1"
       d="m 2.203954,48.960884 c 0,0 13.092484,4.581525 34.010644,4.333031 C 57.132756,53.045423 67.217381,48.979095 63.93563,47.828798 60.653879,46.678501 48.993284,46.394505 47.895999,45.624123 46.424411,44.59095 47.776262,42.50184 47.776262,42.50184 c 0,0 6.277419,-1.12615 8.7157,-5.730656 2.438278,-4.604504 0.367228,-2.856828 1.410917,-4.481483 1.043686,-1.624656 4.897321,-7.92002 4.818776,-10.29585 -0.07854,-2.375829 0.978686,-4.894429 -1.969933,-5.737837 -2.948618,-0.843408 -9.18863,6.753047 -10.380115,7.048146 -1.191485,0.295099 -4.427559,3.800221 -11.235888,3.636917 -5.978862,-0.143409 -7.229931,-4.213526 -8.029183,-4.243258 -2.220374,-0.0826 -5.08821,-4.737387 -7.622267,-3.461023 -0.718408,0.361851 -1.128339,1.787648 -1.694723,3.238361 -0.566383,1.450713 -1.755112,6.546609 -1.612177,8.469556 0.142935,1.922946 -2.008622,3.488316 -2.465198,4.98812 -0.456575,1.499804 -0.04762,2.864556 -1.221833,4.644221 -1.174213,1.779666 -4.01382,5.773975 -5.022191,6.01831 -1.008371,0.244332 -4.1541631,0.769102 -5.7158031,2.054418 -0.8335333,0.686044 -3.5483899,0.311102 -3.5483899,0.311102 z"
       id="path14"
       sodipodi:nodetypes="cssscssssssssssssssc" /><path
       style="fill:#000000;stroke-width:0.808685"
       d="m 34.935195,51.402426 c -0.180622,-0.719653 -1.885834,-1.59309 -3.127403,-1.601904 -0.74355,-0.0053 -0.843698,-0.04884 -0.530803,-0.230876 0.499216,-0.290435 1.921352,-0.04914 2.550056,0.432669 0.268245,0.205571 0.657661,0.43583 0.865368,0.511686 0.207707,0.07585 0.470105,0.381097 0.583107,0.678314 0.184505,0.485286 0.320552,0.539567 1.334067,0.532274 1.06666,-0.0077 1.160209,-0.05383 1.704287,-0.840839 0.481795,-0.696919 0.734344,-0.856513 1.548615,-0.978621 0.535117,-0.08025 1.142619,-0.06681 1.350005,0.02987 0.281632,0.131281 0.160453,0.192379 -0.478792,0.241405 -1.468494,0.112623 -1.769541,0.249455 -2.246407,1.021039 -0.456849,0.739198 -0.482829,0.749235 -1.939278,0.749235 -1.402949,0 -1.483005,-0.02702 -1.612822,-0.544247 z M 1.8991255,48.951169 c 0,-0.120917 0.610922,-0.213965 1.4048365,-0.213965 1.4343026,0 2.0081884,-0.180712 2.770379,-0.87237 0.4640559,-0.421112 4.128808,-1.695204 4.876026,-1.695204 0.249738,0 0.698405,-0.241035 0.997038,-0.535633 0.298632,-0.294597 1.005603,-0.937578 1.571045,-1.428846 0.636065,-0.552627 1.238906,-1.347816 1.58099,-2.085434 0.304102,-0.655721 0.790064,-1.511602 1.079914,-1.901957 0.366157,-0.493122 0.583787,-1.161995 0.713064,-2.191564 0.207316,-1.651069 0.783255,-3.099261 1.485195,-3.734509 0.255394,-0.231129 0.552679,-0.585273 0.660633,-0.786985 0.386353,-0.721909 1.043923,-4.588856 1.048173,-6.163956 0.0058,-2.161265 0.630389,-4.023365 2.260592,-6.739885 0.282483,-0.470722 0.51519,-1.020968 0.517126,-1.222768 0.0041,-0.434497 0.626846,-0.809896 1.343384,-0.809896 0.712501,0 4.11176,1.362315 5.088886,2.039464 0.444346,0.307932 1.626129,1.449561 2.626186,2.536953 l 1.818284,1.977079 1.891678,0.57356 c 2.913091,0.883253 5.179696,1.065522 7.050656,0.566978 3.187434,-0.849338 6.945406,-2.393094 7.182347,-2.950472 0.194277,-0.457014 4.746012,-4.334953 6.832489,-5.821072 2.104744,-1.499131 2.503898,-1.704029 3.319534,-1.704029 1.38087,0 2.625904,0.564559 2.766155,1.254308 0.06312,0.310415 0.20094,0.901385 0.306272,1.313267 0.217522,0.850581 -0.06052,4.930904 -0.395896,5.809751 -0.119133,0.31219 -0.318829,0.630795 -0.443769,0.708012 -0.124939,0.07722 -0.227162,0.385594 -0.227162,0.685282 0,0.299689 -0.240738,0.83099 -0.534974,1.180669 -0.294236,0.349679 -0.597777,0.886008 -0.674537,1.191842 -0.07676,0.305834 -0.413725,0.962294 -0.748814,1.458801 -0.335087,0.496506 -0.60925,1.017895 -0.60925,1.158642 0,0.140747 -0.321329,0.631304 -0.714063,1.090125 -0.609005,0.711486 -0.755978,1.109984 -0.998964,2.70857 -0.283821,1.867224 -0.289736,1.879349 -1.556016,3.189463 -0.699111,0.723313 -1.503229,1.704358 -1.786928,2.1801 -0.283699,0.475743 -0.730496,0.92976 -0.992883,1.008928 -0.262387,0.07917 -0.913359,0.408181 -1.446605,0.731143 -0.533246,0.32296 -1.351661,0.717414 -1.818699,0.876563 -0.467039,0.15915 -0.965573,0.374081 -1.107854,0.477625 -0.14228,0.103545 -0.551487,0.123955 -0.909349,0.04535 -0.601516,-0.132115 -0.650658,-0.09857 -0.650658,0.444091 0,0.322848 0.159298,0.948055 0.353996,1.389348 0.423734,0.960414 0.388536,0.953892 6.760941,1.252653 3.2629,0.152975 4.482362,0.29182 5.349116,0.609037 0.617485,0.225988 1.724475,0.534811 2.459979,0.686273 1.334294,0.274771 1.629663,0.48686 1.009474,0.724849 -0.370241,0.142075 -2.292106,-0.278576 -3.737523,-0.818054 -0.740852,-0.276511 -2.012507,-0.387801 -5.515594,-0.482701 -2.504014,-0.06783 -4.603875,-0.206054 -4.666358,-0.307153 -0.06249,-0.101098 -0.372703,-0.185291 -0.689379,-0.187092 -0.316677,-0.0018 -0.697597,-0.0806 -0.84649,-0.175116 -0.455468,-0.289112 -1.120056,-1.797063 -1.120056,-2.541407 v -0.703631 h -1.980931 c -1.628638,0 -2.285036,-0.107626 -3.69089,-0.605176 C 38.415571,41.169777 37.908896,40.830924 35.06364,38.064003 33.945675,36.976817 32.742123,35.958294 32.389082,35.800618 31.58472,35.441373 26.8965,30.871274 26.449864,30.011042 26.26778,29.660343 25.820573,28.999103 25.456071,28.54162 24.92582,27.876108 24.793339,27.507621 24.793339,26.698285 c 0,-0.703271 -0.136788,-1.185444 -0.44884,-1.582154 -0.3094,-0.393338 -0.478907,-0.98393 -0.545626,-1.901045 -0.135509,-1.862715 -0.282576,-2.721208 -0.466167,-2.721208 -0.0866,0 -0.610411,0.853986 -1.164025,1.897746 -1.060319,1.999083 -1.28602,2.929617 -1.659798,6.843113 -0.249113,2.608244 -0.700001,4.104902 -1.682097,5.583476 -0.995811,1.499222 -1.075656,1.709679 -1.301292,3.42997 -0.14253,1.086683 -0.435486,1.844227 -1.32374,3.423008 -1.06258,1.888629 -2.750801,3.852594 -3.314051,3.855349 -0.13451,6.57e-4 -0.2959,0.134974 -0.358644,0.298482 -0.08339,0.217308 0.06262,0.289261 0.542712,0.267456 0.361235,-0.01641 0.699145,0.09052 0.750912,0.237625 0.05955,0.169232 -0.108873,0.267455 -0.458621,0.267455 -0.304008,0 -0.552742,0.107514 -0.552742,0.23892 0,0.149674 -0.17983,0.182758 -0.481421,0.08857 -0.264781,-0.08269 -0.76803,-0.138871 -1.11833,-0.124842 -0.763939,0.03059 -3.9382447,1.053629 -4.3912571,1.41524 -0.8728309,0.696725 -1.7533888,0.949689 -3.3058265,0.949689 -0.9342634,0 -1.6153599,-0.09022 -1.6153599,-0.213966 z M 49.827198,41.768341 c 0.529562,-0.210602 1.328587,-0.610466 1.77561,-0.888585 0.447023,-0.27812 1.052778,-0.596923 1.34612,-0.70845 0.293344,-0.11153 0.69787,-0.508096 0.898948,-0.881257 0.201078,-0.373161 1.000625,-1.327884 1.776773,-2.121606 l 1.411176,-1.443129 0.141384,-1.672566 c 0.120983,-1.431233 0.233145,-1.781431 0.777344,-2.427076 0.349779,-0.41498 0.827215,-1.168291 1.06097,-1.674022 0.233756,-0.505731 0.620969,-1.168634 0.860475,-1.473116 0.239506,-0.304483 0.435466,-0.7258 0.435466,-0.936262 0,-0.210462 0.225241,-0.654827 0.500535,-0.987477 0.48381,-0.58461 0.797329,-1.471747 1.234565,-3.493341 0.299063,-1.382741 0.301361,-5.170254 0.0035,-5.726861 -0.286374,-0.535092 -1.739125,-1.000465 -2.444479,-0.78306 -0.889857,0.274271 -4.448718,2.929657 -6.407961,4.781195 -0.79952,0.755568 -1.668298,1.522879 -1.930617,1.705136 -0.488419,0.339348 -1.205951,1.111936 -1.218701,1.312212 -0.0039,0.0615 0.338443,0.297914 0.760796,0.525366 0.422353,0.227453 0.951916,0.647469 1.176805,0.93337 0.459251,0.583843 0.54188,1.741289 0.152134,2.131034 -0.361352,0.361352 -1.02703,0.319747 -1.02703,-0.06418 0,-0.176521 0.09628,-0.320947 0.213964,-0.320947 0.117681,0 0.213965,-0.287486 0.213965,-0.638858 0,-0.508333 -0.163931,-0.739141 -0.802367,-1.129694 -1.633589,-0.999324 -1.466453,-0.995185 -3.890594,-0.09634 -4.665918,1.730078 -6.230388,1.954163 -9.254242,1.325521 -3.213982,-0.668171 -4.233587,-1.128235 -5.397068,-2.435256 -2.481008,-2.787091 -3.478362,-3.584722 -5.488138,-4.389121 -1.053868,-0.421803 -2.050798,-0.766915 -2.2154,-0.766915 -0.244146,0 -0.278828,0.404003 -0.188278,2.193138 0.09047,1.787592 0.205436,2.358444 0.6217,3.087096 0.329972,0.577601 0.510701,1.23433 0.510701,1.855774 0,0.697392 0.138875,1.128091 0.505148,1.566633 0.277832,0.332651 0.687039,0.943084 0.909349,1.356518 0.440746,0.819661 4.805944,5.101749 5.844785,5.733506 0.354207,0.215406 1.778364,1.434876 3.164795,2.709934 2.372974,2.182353 4.446703,3.535091 5.420002,3.535586 0.182406,9.3e-5 0.451921,0.120524 0.598925,0.267625 0.177212,0.177328 1.32723,0.308252 3.412735,0.388522 3.554561,0.136813 3.253629,0.160035 4.536227,-0.350046 z m -6.174445,-0.964505 c -2.257119,-0.292676 -8.413509,-3.435593 -9.350736,-4.773671 -0.440826,-0.629368 0.01941,-1.036019 0.509354,-0.45005 1.277649,1.528063 6.658276,4.230092 9.136741,4.588263 0.821046,0.118651 1.950161,0.217638 2.509143,0.219969 0.758879,0.0032 1.016332,0.08554 1.016332,0.325185 0,0.364852 -1.440883,0.398908 -3.820834,0.0903 z m 2.820881,-8.648369 c -0.373454,-0.170129 -0.740201,-0.408341 -0.814995,-0.52936 -0.0748,-0.121019 -0.315997,-0.220035 -0.536007,-0.220035 -0.22001,0 -0.546164,-0.146145 -0.724787,-0.324768 -0.178621,-0.178622 -0.438245,-0.298977 -0.57694,-0.267455 -0.480632,0.109235 -0.426054,-0.419598 0.07734,-0.749439 0.355451,-0.232899 1.232296,-0.358915 2.949915,-0.423945 3.012469,-0.114054 6.045097,-0.706745 8.085486,-1.580213 0.638602,-0.27338 0.779426,-0.269483 1.243216,0.0344 0.586921,0.384566 0.626496,1.316218 0.06927,1.630671 -3.610349,2.037382 -4.661284,2.400565 -7.595745,2.624943 -1.060556,0.08109 -1.695955,0.02423 -2.176758,-0.194803 z m -4.77387,-1.230815 c 0.02308,-0.383289 0.652388,-1.76978 0.830169,-1.82904 0.33276,-0.11092 0.285435,1.051174 -0.06142,1.508093 -0.230454,0.303585 -0.781564,0.533668 -0.768753,0.320947 z M 31.067352,30.282759 c -0.239832,-0.264782 -0.651708,-0.657005 -0.91528,-0.871606 -0.35626,-0.29007 -0.438758,-0.50967 -0.321523,-0.855858 0.08673,-0.256121 0.151098,-0.778598 0.14303,-1.161059 l -0.01467,-0.695385 h 2.248428 2.248428 l 2.229618,1.108309 c 1.226291,0.60957 2.229619,1.235416 2.229619,1.39077 0,0.155353 -0.09628,0.282461 -0.213965,0.282461 -0.117681,0 -0.213965,0.228112 -0.213965,0.506916 0,0.65131 -0.665484,0.771339 -4.294198,0.774517 -2.518771,0.0022 -2.717138,-0.0282 -3.125523,-0.479065 z m 1.610116,-0.561031 c -0.195195,-0.312556 -0.178533,-0.618105 0.07584,-1.39077 l 0.325991,-0.990213 -0.987002,0.0014 c -0.884954,0.0012 -1.02712,0.07182 -1.375015,0.682887 l -0.388014,0.681534 0.708961,0.68558 c 0.81645,0.789524 2.085863,1.044786 1.63924,0.329628 z m 5.283172,-0.05408 c 0.09042,-0.284891 0.03589,-0.524456 -0.146055,-0.641626 -0.49837,-0.320945 -0.929437,-0.101221 -0.999949,0.509694 -0.05783,0.501037 0.01027,0.586574 0.467002,0.586574 0.357261,0 0.58259,-0.150875 0.679002,-0.454642 z m 7.941374,-1.434396 c -0.717214,-0.792514 -0.310282,-1.464246 1.01757,-1.679727 0.622294,-0.100985 0.767968,-0.05742 0.767968,0.229668 0,0.222486 -0.238802,0.402051 -0.641894,0.482669 -0.650275,0.130056 -0.817833,0.368826 -0.427929,0.609799 0.315018,0.194692 0.260389,0.748877 -0.07382,0.748877 -0.158281,0 -0.447134,-0.176079 -0.641894,-0.391286 z m 7.254417,-2.308519 c -0.163554,-0.651653 -0.05438,-0.826427 0.40592,-0.649795 0.41526,0.15935 0.443414,1.209954 0.03242,1.209954 -0.163764,0 -0.361017,-0.252072 -0.438343,-0.560159 z m 4.587458,-1.467069 c -0.294202,-0.17117 -0.920048,-0.315691 -1.390771,-0.321155 -0.470722,-0.0055 -1.205722,-0.0678 -1.633333,-0.138521 -0.740134,-0.122408 -0.778041,-0.169633 -0.789271,-0.983307 -0.01623,-1.17581 0.689088,-1.878903 1.884839,-1.878903 0.479851,0 1.218117,-0.144427 1.640591,-0.320947 0.422473,-0.176521 1.33408,-0.320947 2.025792,-0.320947 0.975274,0 1.257657,0.07206 1.257657,0.320947 0,0.178303 -0.190191,0.320947 -0.427929,0.320947 -0.469883,0 -0.550007,0.220265 -0.205457,0.564815 0.144081,0.14408 0.162929,0.705763 0.05349,1.594036 l -0.168984,1.371565 -0.855858,0.05134 c -0.470723,0.02824 -1.096569,-0.0887 -1.39077,-0.259873 z m 1.694824,-0.807802 c -0.0093,-0.264782 -0.06546,-0.361067 -0.124812,-0.213966 -0.05936,0.147102 -0.394432,0.267457 -0.744612,0.267457 -0.369976,0 -0.581296,0.08963 -0.504453,0.213964 0.07273,0.117681 0.415407,0.213965 0.761503,0.213965 0.514935,0 0.626197,-0.08747 0.612374,-0.48142 z M 56.88803,23.302168 c 0,-0.10297 -0.06017,-0.488107 -0.133728,-0.855858 -0.116174,-0.580869 -0.223151,-0.668639 -0.814964,-0.668639 -1.161403,0 -1.543637,0.525192 -1.206854,1.658225 0.04618,0.155363 2.155546,0.0245 2.155546,-0.133728 z M 19.586866,46.66888 c -0.284559,-0.284558 -0.13191,-0.49925 0.354971,-0.49925 0.585916,0 1.098363,-0.530934 2.065147,-2.139647 0.388972,-0.647242 0.907501,-1.321231 1.152287,-1.497752 0.677056,-0.48824 2.281408,-1.091712 2.516344,-0.946513 0.322212,0.199138 -0.166466,0.664274 -0.839263,0.798833 -0.83681,0.167363 -1.696399,0.906245 -2.197897,1.889264 -0.911908,1.787489 -2.45111,2.995544 -3.051589,2.395065 z m 22.644588,-0.487558 c -0.624563,-0.255629 -1.16125,-0.923122 -1.393591,-1.733245 -0.312497,-1.089615 -0.05958,-1.027079 0.425806,0.105285 0.313445,0.731235 0.611645,1.079025 1.075201,1.253997 0.352803,0.133168 0.64146,0.317299 0.64146,0.40918 0,0.203454 -0.18726,0.194647 -0.748876,-0.03522 z M 24.793339,37.116154 c 0,-0.08913 0.150743,-0.392121 0.334985,-0.673311 0.381266,-0.581886 0.542773,-4.302936 0.230222,-5.304226 -0.121141,-0.388086 -0.106231,-0.588402 0.0438,-0.588402 0.35722,0 0.508408,1.277109 0.427916,3.614692 -0.06509,1.89024 -0.132503,2.209694 -0.555499,2.632314 -0.264784,0.264545 -0.481422,0.408065 -0.481422,0.318933 z"
       id="path1" /><circle
       style="fill:#ffffff;fill-opacity:1;stroke:#000000;stroke-width:0.711925;stroke-dasharray:none;stroke-opacity:1"
       id="path2"
       cx="35.192661"
       cy="29.197929"
       r="3.7223401" /><circle
       style="fill:#000000;fill-opacity:1;stroke:none;stroke-width:0.275905;stroke-dasharray:none;stroke-opacity:1"
       id="circle2"
       cx="36.39753"
       cy="29.197929"
       r="1.4425845" /><circle
       style="fill:#ffffff;fill-opacity:1;stroke:#000000;stroke-width:0.711925;stroke-dasharray:none;stroke-opacity:1"
       id="circle3"
       cx="57.621471"
       cy="22.688698"
       r="3.7223401" /><circle
       style="fill:#000000;fill-opacity:1;stroke:none;stroke-width:0.275905;stroke-dasharray:none;stroke-opacity:1"
       id="circle4"
       cx="58.82634"
       cy="22.688698"
       r="1.4425845" /><path
       style="fill:none;stroke:#000000;stroke-width:1.5875;stroke-linecap:round;stroke-linejoin:miter;stroke-dasharray:none;stroke-opacity:1"
       d="m 50.048306,24.350076 c 0,0 3.546465,2.134816 1.062705,3.52559"
       id="path5"
       sodipodi:nodetypes="cc" /><ellipse
       style="fill:#000000;fill-opacity:1;stroke:none;stroke-width:1.5875;stroke-linecap:round;stroke-dasharray:none;stroke-opacity:1"
       id="path6"
       cx="54.674896"
       cy="-16.243929"
       rx="2.4051955"
       ry="1.4053663"
       transform="rotate(43.793487)" /><path
       style="fill:#f6d2a2;fill-opacity:1;stroke:#000000;stroke-width:0.661458;stroke-linecap:butt;stroke-linejoin:miter;stroke-dasharray:none;stroke-opacity:1"
       d="m 44.259496,33.125661 c -1.162961,-2.249316 -0.671976,-3.029586 2.506223,-3.831981 3.178198,-0.802395 11.194963,-3.175236 9.68428,1.200435 -1.255294,3.635941 -4.151521,1.119628 -6.083612,1.364847 -1.932092,0.245219 -4.943929,3.516016 -6.106891,1.266699 z"
       id="path7"
       sodipodi:nodetypes="zsszz" /><path
       style="fill:#f6f6f6;fill-opacity:1;stroke:#000000;stroke-width:0.529167;stroke-linecap:butt;stroke-linejoin:miter;stroke-dasharray:none;stroke-opacity:1"
       d="m 47.468301,33.49675 c 0,0 2.43e-4,3.24883 1.660112,2.930576 1.659871,-0.318255 0.07609,-3.935635 0.07609,-3.935635 z"
       id="path8" /><path
       style="fill:#f6f6f6;fill-opacity:1;stroke:#000000;stroke-width:0.529167;stroke-linecap:butt;stroke-linejoin:miter;stroke-dasharray:none;stroke-opacity:1"
       d="m 49.442594,32.117701 c 0,0 0.199458,4.080636 1.859327,3.762382 1.659871,-0.318255 -0.009,-3.938737 -0.009,-3.938737 z"
       id="path9"
       sodipodi:nodetypes="cscc" /><path
       style="fill:#69d7e4;fill-opacity:1;stroke:#000000;stroke-width:0.529167;stroke-linecap:butt;stroke-linejoin:miter;stroke-dasharray:none;stroke-opacity:1"
       d="m 18.382256,34.462438 c 0,0 -4.941892,-0.0077 -3.664622,-4.155149 1.27727,-4.147421 4.583048,-1.335897 5.481833,-0.730718 0.898785,0.605179 -1.817211,4.885867 -1.817211,4.885867 z"
       id="path10" /><path
       style="fill:#000000;fill-opacity:1;stroke:none;stroke-width:0.2667;stroke-linecap:butt;stroke-linejoin:miter;stroke-dasharray:none;stroke-opacity:1"
       d="m 18.864738,33.455747 c 0,0 -2.490679,-0.0039 -1.846943,-2.094165 0.643735,-2.090271 2.309823,-0.673282 2.762804,-0.368277 0.452982,0.305006 -0.915861,2.462442 -0.915861,2.462442 z"
       id="path11" /><path
       style="fill:#69d7e4;fill-opacity:1;stroke:#000000;stroke-width:0.529167;stroke-linecap:butt;stroke-linejoin:miter;stroke-dasharray:none;stroke-opacity:1"
       d="m 20.151994,27.049299 c 0,0 -4.886389,0.738615 -4.250031,-3.554146 0.636363,-4.292734 4.328777,-2.012621 5.308638,-1.550098 0.979862,0.462523 -1.058607,5.104244 -1.058607,5.104244 z"
       id="path12"
       sodipodi:nodetypes="ccsc" /><path
       style="fill:#000000;fill-opacity:1;stroke:none;stroke-width:0.2667;stroke-linecap:butt;stroke-linejoin:miter;stroke-dasharray:none;stroke-opacity:1"
       d="m 20.476933,25.981296 c 0,0 -2.462709,0.372238 -2.141985,-1.791264 0.320722,-2.163507 2.181672,-1.014346 2.675515,-0.781238 0.493844,0.233108 -0.53353,2.572502 -0.53353,2.572502 z"
       id="path13"
       sodipodi:nodetypes="cssc" /></g></svg>
